<svg width="1548" height="436" viewBox="0 0 1548 436" fill="none" xmlns="http://www.w3.org/2000/svg">
<g clip-path="url(#clip0_2141_3100)">
<path d="M77.1426 78C77.1426 87.8509 73.2294 97.2984 66.2638 104.264C59.2981 111.23 49.8507 115.143 39.9998 115.143C30.1489 115.143 20.7015 111.23 13.7358 104.264C6.77019 97.2984 2.85693 87.8509 2.85693 78M77.1426 78C77.1426 68.1491 73.2294 58.7017 66.2638 51.7361C59.2981 44.7704 49.8507 40.8572 39.9998 40.8572C30.1489 40.8572 20.7015 44.7704 13.7358 51.7361C6.77019 58.7017 2.85693 68.1491 2.85693 78M77.1426 78H2.85693" stroke="#C6C404" stroke-opacity="0.32" stroke-width="6" stroke-linecap="round" stroke-linejoin="round"/>
<path d="M54.2853 78C53.5836 91.5828 48.5806 104.591 39.9996 115.143C31.4186 104.591 26.4156 91.5828 25.7139 78C26.4156 64.4172 31.4186 51.4095 39.9996 40.8572C48.5806 51.4095 53.5836 64.4172 54.2853 78Z" stroke="#C6C404" stroke-opacity="0.32" stroke-width="6" stroke-linecap="round" stroke-linejoin="round"/>
</g>
<path fill-rule="evenodd" clip-rule="evenodd" d="M82.9532 309.753C78.6199 309.173 72.9266 309.167 64.9999 309.167C57.0732 309.167 51.3799 309.173 47.0466 309.753C42.7833 310.327 40.2133 311.42 38.3133 313.317C36.4166 315.217 35.3266 317.783 34.7533 322.047C34.1733 326.38 34.1666 332.073 34.1666 340C34.1666 347.927 34.1733 353.62 34.7533 357.953C35.3266 362.217 36.4199 364.787 38.3166 366.687C39.8733 368.243 41.8833 369.253 44.9133 369.887L94.8866 319.913C94.2532 316.887 93.2432 314.873 91.6866 313.313C89.7866 311.417 87.2166 310.327 82.9532 309.753ZM95.6232 326.247L75.2032 346.667L93.2266 364.69C94.2099 363.023 94.8499 360.89 95.2466 357.957C95.8266 353.623 95.8332 347.927 95.8332 340C95.8332 334.407 95.8332 329.923 95.6232 326.247ZM89.6899 368.227L71.6666 350.2L51.2466 370.623C54.9233 370.83 59.4066 370.833 64.9999 370.833C72.9266 370.833 78.6199 370.827 82.9532 370.247C85.8932 369.85 88.0299 369.21 89.6932 368.227M83.6266 304.8C88.4399 305.447 92.2399 306.8 95.2232 309.78C98.2066 312.763 99.5566 316.563 100.203 321.38C100.837 326.083 100.837 332.113 100.837 339.81V340.19C100.837 347.887 100.837 353.917 100.203 358.623C99.5566 363.437 98.2032 367.237 95.2232 370.22C92.2399 373.203 88.4399 374.553 83.6232 375.2C78.9199 375.833 72.8899 375.833 65.1932 375.833H64.8132C57.1166 375.833 51.0866 375.833 46.3799 375.2C41.5666 374.553 37.7666 373.2 34.7833 370.22C31.7999 367.237 30.4499 363.437 29.8033 358.62C29.1699 353.917 29.1699 347.887 29.1699 340.19V339.81C29.1699 332.113 29.1699 326.083 29.8033 321.377C30.4499 316.563 31.8033 312.763 34.7833 309.78C37.7666 306.797 41.5666 305.447 46.3833 304.8C51.0866 304.167 57.1166 304.167 64.8132 304.167H65.1932C72.8899 304.167 78.9199 304.167 83.6266 304.8ZM40.8333 329.19C40.8333 321.647 47.3466 315.833 54.9999 315.833C62.6533 315.833 69.1666 321.647 69.1666 329.19C69.1666 335.947 65.0132 343.917 58.1166 346.863C57.131 347.283 56.071 347.499 54.9999 347.499C53.9289 347.499 52.8688 347.283 51.8833 346.863C44.9833 343.917 40.8333 335.947 40.8333 329.19ZM54.9999 320.833C49.7666 320.833 45.8333 324.74 45.8333 329.19C45.8333 334.337 49.1266 340.25 53.8499 342.267C54.2139 342.42 54.6049 342.499 54.9999 342.499C55.3949 342.499 55.7859 342.42 56.1499 342.267C60.8732 340.25 64.1666 334.333 64.1666 329.19C64.1666 324.74 60.2332 320.833 54.9999 320.833Z" fill="#C6C404" fill-opacity="0.32"/>
<path d="M58.3332 330C58.3332 330.884 57.982 331.732 57.3569 332.357C56.7317 332.982 55.8839 333.333 54.9998 333.333C54.1158 333.333 53.2679 332.982 52.6428 332.357C52.0177 331.732 51.6665 330.884 51.6665 330C51.6665 329.116 52.0177 328.268 52.6428 327.643C53.2679 327.018 54.1158 326.667 54.9998 326.667C55.8839 326.667 56.7317 327.018 57.3569 327.643C57.982 328.268 58.3332 329.116 58.3332 330Z" fill="#C6C404" fill-opacity="0.32"/>
<g clip-path="url(#clip1_2141_3100)">
<path d="M594.469 383L609.459 408H579.43L564 433.098L548.57 408H518.541L533.482 383.049L517.711 358H548.57L564 332.902L579.43 358H609.459L594.469 383ZM587.193 383L598.424 364.25H575.963L564 344.816L552.037 364.25H529.039L540.855 382.951L529.576 401.75H552.037L564 421.184L575.963 401.75H598.424L587.193 383Z" fill="#C6C404" fill-opacity="0.32"/>
</g>
<path d="M689.25 47.995C694.08 47.995 698 51.915 698 56.745V71.96C697.999 74.4718 697.311 76.9356 696.009 79.0837C694.707 81.2318 692.842 82.9822 690.615 84.145L659.205 100.545C664.237 103.069 668.27 107.216 670.651 112.317C673.032 117.418 673.622 123.173 672.325 128.651C671.029 134.128 667.921 139.008 663.506 142.5C659.091 145.992 653.627 147.892 647.998 147.892C642.368 147.892 636.904 145.992 632.489 142.5C628.074 139.008 624.966 134.128 623.67 128.651C622.373 123.173 622.963 117.418 625.344 112.317C627.725 107.216 631.758 103.069 636.79 100.545L605.39 84.15C603.162 82.9875 601.295 81.2366 599.992 79.0875C598.689 76.9383 598 74.4732 598 71.96V56.745C598 51.915 601.92 47.995 606.75 47.995H689.25ZM648 105.4C643.359 105.4 638.908 107.244 635.626 110.526C632.344 113.808 630.5 118.259 630.5 122.9C630.5 127.541 632.344 131.992 635.626 135.274C638.908 138.556 643.359 140.4 648 140.4C652.641 140.4 657.092 138.556 660.374 135.274C663.656 131.992 665.5 127.541 665.5 122.9C665.5 118.259 663.656 113.808 660.374 110.526C657.092 107.244 652.641 105.4 648 105.4ZM665.5 55.49H630.5V88.8L647.42 97.64C647.599 97.7337 647.798 97.7827 648 97.7827C648.202 97.7827 648.401 97.7337 648.58 97.64L665.5 88.795V55.49ZM623 55.49L606.75 55.495C606.418 55.495 606.101 55.6267 605.866 55.8611C605.632 56.0955 605.5 56.4135 605.5 56.745V71.96C605.5 74.285 606.795 76.42 608.855 77.5L623 84.88V55.49ZM689.25 55.495L673 55.49V84.88L687.145 77.5C688.157 76.9711 689.005 76.1751 689.596 75.1985C690.188 74.2218 690.5 73.1018 690.5 71.96V56.745C690.5 56.4135 690.368 56.0955 690.134 55.8611C689.899 55.6267 689.582 55.495 689.25 55.495Z" fill="#C6C404" fill-opacity="0.32"/>
<path d="M1484.57 79.9828C1484.75 80.0731 1484.94 80.1612 1485.12 80.2471C1486.65 80.9626 1488.31 81.3334 1490 81.3334C1491.68 81.3334 1493.35 80.963 1494.87 80.2484C1497.11 79.2061 1499.2 77.8489 1501.15 76.2414C1499.2 77.8485 1497.11 79.2058 1494.88 80.2486L1494.88 80.2492C1493.35 80.9639 1491.69 81.3343 1490 81.3343C1488.31 81.3343 1486.65 80.9639 1485.12 80.2492L1485.12 80.2486C1484.94 80.1622 1484.75 80.0736 1484.57 79.9828ZM1484.57 79.9828C1479.26 77.3501 1474.73 72.9239 1471.24 67.6083C1474.73 72.9249 1479.26 77.3482 1484.57 79.9828ZM1480 41.3333L1480 41.3338C1480 43.1415 1480.49 44.9154 1481.42 46.467C1482.34 48.0186 1483.67 49.2897 1485.27 50.1451C1486.86 51.0006 1488.65 51.4084 1490.46 51.3252C1492.27 51.2419 1494.02 50.6708 1495.52 49.6725L1497.23 48.5418L1497.23 48.5383L1498.28 46.9357C1497.93 47.459 1497.52 47.9512 1497.07 48.4044C1495.2 50.2797 1492.65 51.3333 1490 51.3333C1488.69 51.3333 1487.39 51.0746 1486.17 50.5721C1484.96 50.0695 1483.86 49.3329 1482.93 48.4044C1482 47.4758 1481.26 46.3734 1480.76 45.1601C1480.26 43.9469 1480 42.6465 1480 41.3333ZM1480 41.3333L1480 41.3331C1480 39.774 1480.36 38.2364 1481.06 36.8432C1481.76 35.45 1482.78 34.2398 1484.03 33.3091C1485.28 32.3785 1486.73 31.7532 1488.27 31.4832C1489.8 31.2133 1491.38 31.3061 1492.87 31.7543C1494.37 32.2025 1495.74 32.9937 1496.87 34.0646C1498 35.1356 1498.87 36.4566 1499.4 37.9223L1501.75 37.0698L1499.4 37.9223C1499.77 38.9403 1499.97 40.0086 1500 41.085C1499.93 38.5228 1498.89 36.079 1497.07 34.2622C1495.2 32.3869 1492.65 31.3333 1490 31.3333C1488.69 31.3333 1487.39 31.5919 1486.17 32.0945C1484.96 32.597 1483.86 33.3336 1482.93 34.2622C1482 35.1908 1481.26 36.2932 1480.76 37.5065C1480.26 38.7197 1480 40.0201 1480 41.3333ZM1516.67 41.81C1516.67 48.1174 1515.14 54.8727 1512.36 61.0339C1515.13 54.8735 1516.67 48.1172 1516.67 41.81ZM1501.67 53.0004L1499.65 50.9732L1501.67 52.9994L1501.67 53L1501.67 53.0005L1501.67 53.0008L1501.67 53.0005L1501.67 53.0004ZM1463.33 41.81C1463.33 48.9373 1465.29 56.6344 1468.78 63.4027C1465.29 56.6354 1463.33 48.9368 1463.33 41.81Z" stroke="#C6C404" stroke-opacity="0.32" stroke-width="5"/>
<g clip-path="url(#clip2_2141_3100)">
<mask id="path-8-inside-1_2141_3100" fill="white">
<path d="M1062.9 10C1011.7 20.7142 962.96 63.923 924.323 134.244C912.809 155.2 902.379 178.459 893.194 203.539C945.011 216.859 1002.34 225.159 1062.9 226.959V10ZM1113.09 10V226.959C1173.65 225.149 1230.98 216.859 1282.8 203.539C1273.61 178.459 1263.18 155.2 1251.67 134.234C1213.02 63.9129 1164.28 20.7242 1113.09 10ZM933.287 34.4464C866.583 58.8094 806.553 98.5947 758.07 150.572C759.707 151.507 761.283 152.463 762.949 153.389C787.402 166.869 814.947 178.881 844.921 189.143C855.2 160.763 867.035 134.204 880.355 109.959C895.915 81.629 913.672 56.1363 933.287 34.4464ZM1242.7 34.4464C1262.32 56.1363 1280.08 81.629 1295.64 109.959C1308.96 134.204 1320.79 160.763 1331.05 189.163C1361.03 178.902 1388.59 166.88 1413.04 153.379C1414.72 152.463 1416.28 151.507 1417.92 150.572C1369.44 98.5984 1309.41 58.8165 1242.7 34.4565M725.466 189.726C672.526 260.913 641.749 346.188 637 434.844H800.702C802.64 364.171 812.718 297.321 829.522 237.14C796.717 225.943 766.262 212.654 738.747 197.463C734.22 194.968 729.843 192.332 725.476 189.716M1450.53 189.716C1446.17 192.332 1441.8 194.948 1437.26 197.463C1409.73 212.654 1379.24 225.953 1346.42 237.15C1363.16 297.331 1373.2 364.181 1375.13 434.834H1539C1534.25 346.178 1503.47 260.903 1450.53 189.716ZM877.776 251.567C862.437 306.868 852.881 368.97 850.934 434.834H1062.9V277.14C997.089 275.329 934.632 266.426 877.766 251.587M1298.22 251.587C1241.37 266.426 1178.89 275.329 1113.09 277.14V434.844H1325.07C1323.12 368.98 1313.56 306.888 1298.22 251.587ZM637.01 485.146C641.756 573.801 672.53 659.075 725.466 730.264C729.833 727.648 734.2 725.032 738.737 722.517C766.241 707.346 796.717 694.047 829.512 682.83C812.708 622.659 802.63 555.819 800.692 485.146H637.01ZM850.923 485.146C852.871 550.98 862.417 613.052 877.745 668.333C934.612 653.454 997.069 644.51 1062.9 642.689V485.146H850.923ZM1113.09 485.146V642.689C1178.92 644.5 1241.38 653.454 1298.24 668.333C1313.57 613.052 1323.12 550.98 1325.07 485.146H1113.09ZM1375.14 485.146C1373.21 555.799 1363.17 622.639 1346.43 682.809C1379.24 694.027 1409.73 707.336 1437.25 722.527C1441.78 725.022 1446.16 727.658 1450.52 730.274C1503.47 659.084 1534.24 573.805 1538.99 485.146H1375.14ZM1062.9 693.031C1002.34 694.841 945.011 703.131 893.194 716.451C902.379 741.531 912.809 764.79 924.323 785.756C962.97 856.077 1011.71 899.276 1062.9 910V693.031ZM1113.09 693.031V909.99C1164.29 899.276 1213.03 856.067 1251.67 785.746C1263.18 764.79 1273.61 741.531 1282.8 716.451C1230.98 703.131 1173.65 694.831 1113.09 693.031ZM1331.05 730.817C1320.78 759.207 1308.97 785.776 1295.64 810.021C1280.08 838.351 1262.32 863.844 1242.7 885.534C1309.41 861.171 1369.44 821.385 1417.92 769.408C1416.28 768.472 1414.71 767.517 1413.04 766.591C1388.59 753.11 1361.03 741.078 1331.05 730.817ZM844.921 730.837C814.947 741.098 787.402 753.1 762.949 766.601C761.273 767.517 759.707 768.472 758.07 769.408C806.553 821.385 866.583 861.171 933.287 885.534C913.672 863.844 895.915 838.351 880.345 810.021C867.035 785.776 855.2 759.217 844.921 730.837Z"/>
</mask>
<path d="M1062.9 10C1011.7 20.7142 962.96 63.923 924.323 134.244C912.809 155.2 902.379 178.459 893.194 203.539C945.011 216.859 1002.34 225.159 1062.9 226.959V10ZM1113.09 10V226.959C1173.65 225.149 1230.98 216.859 1282.8 203.539C1273.61 178.459 1263.18 155.2 1251.67 134.234C1213.02 63.9129 1164.28 20.7242 1113.09 10ZM933.287 34.4464C866.583 58.8094 806.553 98.5947 758.07 150.572C759.707 151.507 761.283 152.463 762.949 153.389C787.402 166.869 814.947 178.881 844.921 189.143C855.2 160.763 867.035 134.204 880.355 109.959C895.915 81.629 913.672 56.1363 933.287 34.4464ZM1242.7 34.4464C1262.32 56.1363 1280.08 81.629 1295.64 109.959C1308.96 134.204 1320.79 160.763 1331.05 189.163C1361.03 178.902 1388.59 166.88 1413.04 153.379C1414.72 152.463 1416.28 151.507 1417.92 150.572C1369.44 98.5984 1309.41 58.8165 1242.7 34.4565M725.466 189.726C672.526 260.913 641.749 346.188 637 434.844H800.702C802.64 364.171 812.718 297.321 829.522 237.14C796.717 225.943 766.262 212.654 738.747 197.463C734.22 194.968 729.843 192.332 725.476 189.716M1450.53 189.716C1446.17 192.332 1441.8 194.948 1437.26 197.463C1409.73 212.654 1379.24 225.953 1346.42 237.15C1363.16 297.331 1373.2 364.181 1375.13 434.834H1539C1534.25 346.178 1503.47 260.903 1450.53 189.716ZM877.776 251.567C862.437 306.868 852.881 368.97 850.934 434.834H1062.9V277.14C997.089 275.329 934.632 266.426 877.766 251.587M1298.22 251.587C1241.37 266.426 1178.89 275.329 1113.09 277.14V434.844H1325.07C1323.12 368.98 1313.56 306.888 1298.22 251.587ZM637.01 485.146C641.756 573.801 672.53 659.075 725.466 730.264C729.833 727.648 734.2 725.032 738.737 722.517C766.241 707.346 796.717 694.047 829.512 682.83C812.708 622.659 802.63 555.819 800.692 485.146H637.01ZM850.923 485.146C852.871 550.98 862.417 613.052 877.745 668.333C934.612 653.454 997.069 644.51 1062.9 642.689V485.146H850.923ZM1113.09 485.146V642.689C1178.92 644.5 1241.38 653.454 1298.24 668.333C1313.57 613.052 1323.12 550.98 1325.07 485.146H1113.09ZM1375.14 485.146C1373.21 555.799 1363.17 622.639 1346.43 682.809C1379.24 694.027 1409.73 707.336 1437.25 722.527C1441.78 725.022 1446.16 727.658 1450.52 730.274C1503.47 659.084 1534.24 573.805 1538.99 485.146H1375.14ZM1062.9 693.031C1002.34 694.841 945.011 703.131 893.194 716.451C902.379 741.531 912.809 764.79 924.323 785.756C962.97 856.077 1011.71 899.276 1062.9 910V693.031ZM1113.09 693.031V909.99C1164.29 899.276 1213.03 856.067 1251.67 785.746C1263.18 764.79 1273.61 741.531 1282.8 716.451C1230.98 703.131 1173.65 694.831 1113.09 693.031ZM1331.05 730.817C1320.78 759.207 1308.97 785.776 1295.64 810.021C1280.08 838.351 1262.32 863.844 1242.7 885.534C1309.41 861.171 1369.44 821.385 1417.92 769.408C1416.28 768.472 1414.71 767.517 1413.04 766.591C1388.59 753.11 1361.03 741.078 1331.05 730.817ZM844.921 730.837C814.947 741.098 787.402 753.1 762.949 766.601C761.273 767.517 759.707 768.472 758.07 769.408C806.553 821.385 866.583 861.171 933.287 885.534C913.672 863.844 895.915 838.351 880.345 810.021C867.035 785.776 855.2 759.217 844.921 730.837Z" fill="#2B0035" fill-opacity="0.03"/>
<path d="M1062.9 10H1063.4V9.38453L1062.8 9.5106L1062.9 10ZM924.323 134.244L924.761 134.485V134.485L924.323 134.244ZM893.194 203.539L892.725 203.367L892.535 203.886L893.07 204.023L893.194 203.539ZM1062.9 226.959L1062.88 227.459L1063.4 227.474V226.959H1062.9ZM1113.09 10L1113.19 9.51063L1112.59 9.38438V10H1113.09ZM1113.09 226.959H1112.59V227.475L1113.11 227.459L1113.09 226.959ZM1282.8 203.539L1282.92 204.023L1283.46 203.886L1283.27 203.367L1282.8 203.539ZM1251.67 134.234L1252.11 133.993L1252.11 133.993L1251.67 134.234ZM933.287 34.4464L933.658 34.7818L933.115 33.9768L933.287 34.4464ZM758.07 150.572L757.705 150.231L757.274 150.693L757.822 151.006L758.07 150.572ZM762.949 153.389L762.706 153.826L762.708 153.827L762.949 153.389ZM844.921 189.143L844.759 189.616L845.223 189.775L845.391 189.313L844.921 189.143ZM880.355 109.959L880.794 110.199L880.794 110.199L880.355 109.959ZM1295.64 109.959L1296.08 109.718L1296.08 109.718L1295.64 109.959ZM1331.05 189.163L1330.58 189.333L1330.75 189.795L1331.21 189.636L1331.05 189.163ZM1413.04 153.379L1412.8 152.94L1412.8 152.941L1413.04 153.379ZM1417.92 150.572L1418.17 151.006L1418.72 150.692L1418.29 150.231L1417.92 150.572ZM637 434.844L636.501 434.818L636.472 435.344H637V434.844ZM800.702 434.844V435.344H801.189L801.202 434.858L800.702 434.844ZM829.522 237.14L830.004 237.275L830.131 236.82L829.684 236.667L829.522 237.14ZM738.747 197.463L738.989 197.025L738.988 197.025L738.747 197.463ZM1450.53 189.716L1450.93 189.418L1450.66 189.055L1450.28 189.287L1450.53 189.716ZM1437.26 197.463L1437.5 197.9L1437.51 197.9L1437.26 197.463ZM1346.42 237.15L1346.26 236.677L1345.81 236.83L1345.94 237.284L1346.42 237.15ZM1375.13 434.834L1374.63 434.848L1374.64 435.334H1375.13V434.834ZM1539 434.834V435.334H1539.53L1539.5 434.808L1539 434.834ZM850.934 434.834L850.434 434.82L850.419 435.334H850.934V434.834ZM1062.9 434.834V435.334H1063.4V434.834H1062.9ZM1062.9 277.14H1063.4V276.653L1062.91 276.64L1062.9 277.14ZM1298.22 251.587L1298.71 251.453L1298.57 250.979L1298.1 251.103L1298.22 251.587ZM1113.09 277.14L1113.08 276.64L1112.59 276.653V277.14H1113.09ZM1113.09 434.844H1112.59V435.344H1113.09V434.844ZM1325.07 434.844V435.344H1325.58L1325.57 434.83L1325.07 434.844ZM637.01 485.146V484.646H636.483L636.511 485.172L637.01 485.146ZM725.466 730.264L725.065 730.562L725.335 730.925L725.723 730.693L725.466 730.264ZM738.737 722.517L738.495 722.079L738.494 722.08L738.737 722.517ZM829.512 682.83L829.674 683.303L830.121 683.15L829.994 682.695L829.512 682.83ZM800.692 485.146L801.192 485.132L801.179 484.646H800.692V485.146ZM850.923 485.146V484.646H850.408L850.424 485.16L850.923 485.146ZM877.745 668.333L877.264 668.466L877.395 668.941L877.872 668.816L877.745 668.333ZM1062.9 642.689L1062.91 643.189L1063.4 643.175V642.689H1062.9ZM1062.9 485.146H1063.4V484.646H1062.9V485.146ZM1113.09 485.146V484.646H1112.59V485.146H1113.09ZM1113.09 642.689H1112.59V643.176L1113.08 643.189L1113.09 642.689ZM1298.24 668.333L1298.12 668.816L1298.59 668.941L1298.73 668.466L1298.24 668.333ZM1325.07 485.146L1325.57 485.16L1325.58 484.646H1325.07V485.146ZM1375.14 485.146V484.646H1374.65L1374.64 485.132L1375.14 485.146ZM1346.43 682.809L1345.95 682.675L1345.82 683.13L1346.27 683.283L1346.43 682.809ZM1437.25 722.527L1437.01 722.965L1437.01 722.965L1437.25 722.527ZM1450.52 730.274L1450.27 730.703L1450.65 730.935L1450.92 730.572L1450.52 730.274ZM1538.99 485.146L1539.49 485.172L1539.52 484.646H1538.99V485.146ZM1062.9 693.031H1063.4V692.516L1062.88 692.531L1062.9 693.031ZM893.194 716.451L893.07 715.967L892.535 716.104L892.725 716.623L893.194 716.451ZM924.323 785.756L923.884 785.997L923.884 785.997L924.323 785.756ZM1062.9 910L1062.8 910.489L1063.4 910.616V910H1062.9ZM1113.09 693.031L1113.11 692.531L1112.59 692.516V693.031H1113.09ZM1113.09 909.99H1112.59V910.605L1113.19 910.479L1113.09 909.99ZM1251.67 785.746L1251.23 785.505L1251.67 785.746ZM1282.8 716.451L1283.27 716.623L1283.46 716.104L1282.92 715.967L1282.8 716.451ZM1331.05 730.817L1331.21 730.344L1330.75 730.185L1330.58 730.647L1331.05 730.817ZM1295.64 810.021L1296.08 810.262L1296.08 810.262L1295.64 810.021ZM1242.7 885.534L1242.33 885.198L1242.87 886.003L1242.7 885.534ZM1417.92 769.408L1418.29 769.749L1418.72 769.287L1418.17 768.974L1417.92 769.408ZM1413.04 766.591L1413.28 766.154L1413.28 766.153L1413.04 766.591ZM844.921 730.837L845.391 730.667L845.223 730.205L844.759 730.364L844.921 730.837ZM762.949 766.601L763.189 767.04L763.191 767.039L762.949 766.601ZM758.07 769.408L757.822 768.974L757.274 769.287L757.705 769.749L758.07 769.408ZM933.287 885.534L933.115 886.003L933.658 885.198L933.287 885.534ZM880.345 810.021L879.907 810.262L879.907 810.262L880.345 810.021ZM1062.8 9.5106C1011.4 20.2671 962.556 63.6193 923.884 134.003L924.761 134.485C963.363 64.2266 1012.01 21.1612 1063 10.4894L1062.8 9.5106ZM923.884 134.003C912.357 154.984 901.917 178.266 892.725 203.367L893.664 203.711C902.841 178.651 913.261 155.416 924.761 134.485L923.884 134.003ZM893.07 204.023C944.924 217.353 1002.29 225.657 1062.88 227.459L1062.91 226.46C1002.39 224.66 945.099 216.365 893.319 203.055L893.07 204.023ZM1063.4 226.959V10H1062.4V226.959H1063.4ZM1112.59 10V226.959H1113.59V10H1112.59ZM1113.11 227.459C1173.7 225.647 1231.07 217.353 1282.92 204.023L1282.67 203.055C1230.89 216.365 1173.6 224.65 1113.08 226.46L1113.11 227.459ZM1283.27 203.367C1274.07 178.266 1263.63 154.984 1252.11 133.993L1251.23 134.475C1262.73 155.416 1273.15 178.651 1282.33 203.711L1283.27 203.367ZM1252.11 133.993C1213.42 63.6092 1164.58 20.2772 1113.19 9.51063L1112.99 10.4894C1163.97 21.1712 1212.62 64.2166 1251.23 134.475L1252.11 133.993ZM933.115 33.9768C866.338 58.3667 806.241 98.1962 757.705 150.231L758.436 150.913C806.865 98.9933 866.829 59.252 933.458 34.9161L933.115 33.9768ZM757.822 151.006C759.44 151.931 761.04 152.901 762.706 153.826L763.192 152.952C761.525 152.026 759.974 151.084 758.319 150.138L757.822 151.006ZM762.708 153.827C787.189 167.323 814.761 179.346 844.759 189.616L845.083 188.67C815.132 178.417 787.615 166.416 763.19 152.951L762.708 153.827ZM845.391 189.313C855.662 160.954 867.487 134.419 880.794 110.199L879.917 109.718C866.583 133.988 854.737 160.571 844.451 188.973L845.391 189.313ZM880.794 110.199C896.337 81.8988 914.073 56.439 933.658 34.7818L932.916 34.111C913.272 55.8337 895.492 81.3591 879.917 109.718L880.794 110.199ZM1242.33 34.7818C1261.92 56.439 1279.65 81.8988 1295.21 110.199L1296.08 109.718C1280.5 81.3591 1262.72 55.8337 1243.07 34.111L1242.33 34.7818ZM1295.21 110.199C1308.5 134.419 1320.33 160.954 1330.58 189.333L1331.52 188.993C1321.25 160.571 1309.41 133.988 1296.08 109.718L1295.21 110.199ZM1331.21 189.636C1361.22 179.366 1388.8 167.333 1413.28 153.816L1412.8 152.941C1388.38 166.426 1360.85 178.437 1330.89 188.69L1331.21 189.636ZM1413.28 153.817C1414.96 152.9 1416.55 151.931 1418.17 151.006L1417.67 150.138C1416.02 151.084 1414.47 152.026 1412.8 152.94L1413.28 153.817ZM1418.29 150.231C1369.75 98.1998 1309.65 58.3739 1242.87 33.9868L1242.53 34.9261C1309.16 59.2592 1369.12 98.9969 1417.55 150.913L1418.29 150.231ZM725.065 189.428C672.066 260.694 641.255 346.063 636.501 434.818L637.499 434.871C642.243 346.313 672.986 261.133 725.868 190.025L725.065 189.428ZM637 435.344H800.702V434.344H637V435.344ZM801.202 434.858C803.139 364.223 813.211 297.413 830.004 237.275L829.04 237.006C812.225 297.228 802.141 364.119 800.203 434.831L801.202 434.858ZM829.684 236.667C796.903 225.478 766.475 212.2 738.989 197.025L738.505 197.9C766.048 213.107 796.531 226.408 829.361 237.613L829.684 236.667ZM738.988 197.025C734.471 194.535 730.102 191.904 725.733 189.287L725.219 190.145C729.584 192.76 733.969 195.4 738.506 197.901L738.988 197.025ZM1450.28 189.287C1445.91 191.904 1441.55 194.515 1437.02 197.025L1437.51 197.9C1442.05 195.38 1446.42 192.76 1450.79 190.145L1450.28 189.287ZM1437.02 197.025C1409.52 212.2 1379.06 225.489 1346.26 236.677L1346.58 237.624C1379.43 226.418 1409.94 213.107 1437.5 197.9L1437.02 197.025ZM1345.94 237.284C1362.67 297.423 1372.7 364.233 1374.63 434.848L1375.63 434.821C1373.7 364.129 1363.65 297.238 1346.9 237.016L1345.94 237.284ZM1375.13 435.334H1539V434.334H1375.13V435.334ZM1539.5 434.808C1534.74 346.053 1503.93 260.684 1450.93 189.418L1450.13 190.015C1503.01 261.123 1533.76 346.303 1538.5 434.861L1539.5 434.808ZM877.294 251.433C861.944 306.775 852.382 368.917 850.434 434.82L851.433 434.849C853.38 369.023 862.93 306.961 878.257 251.7L877.294 251.433ZM850.934 435.334H1062.9V434.334H850.934V435.334ZM1063.4 434.834V277.14H1062.4V434.834H1063.4ZM1062.91 276.64C997.139 274.83 934.719 265.932 877.892 251.103L877.639 252.071C934.544 266.92 997.04 275.828 1062.89 277.64L1062.91 276.64ZM1298.1 251.103C1241.28 265.932 1178.84 274.83 1113.08 276.64L1113.1 277.64C1178.94 275.828 1241.46 266.92 1298.35 252.071L1298.1 251.103ZM1112.59 277.14V434.844H1113.59V277.14H1112.59ZM1113.09 435.344H1325.07V434.344H1113.09V435.344ZM1325.57 434.83C1323.62 368.927 1314.06 306.795 1298.71 251.453L1297.74 251.72C1313.07 306.981 1322.62 369.033 1324.57 434.859L1325.57 434.83ZM636.511 485.172C641.262 573.926 672.07 659.295 725.065 730.562L725.868 729.965C672.99 658.856 642.25 573.676 637.509 485.119L636.511 485.172ZM725.723 730.693C730.091 728.076 734.451 725.465 738.979 722.955L738.494 722.08C733.949 724.6 729.575 727.22 725.209 729.835L725.723 730.693ZM738.978 722.955C766.455 707.8 796.904 694.511 829.674 683.303L829.35 682.356C796.531 693.582 766.028 706.893 738.495 722.079L738.978 722.955ZM829.994 682.695C813.201 622.567 803.129 555.767 801.192 485.132L800.193 485.159C802.131 555.871 812.215 622.752 829.03 682.964L829.994 682.695ZM800.692 484.646H637.01V485.646H800.692V484.646ZM850.424 485.16C852.372 551.033 861.924 613.145 877.264 668.466L878.227 668.199C862.91 612.959 853.37 550.927 851.423 485.131L850.424 485.16ZM877.872 668.816C934.699 653.947 997.119 645.009 1062.91 643.189L1062.89 642.189C997.019 644.011 934.524 652.96 877.619 667.849L877.872 668.816ZM1063.4 642.689V485.146H1062.4V642.689H1063.4ZM1062.9 484.646H850.923V485.646H1062.9V484.646ZM1112.59 485.146V642.689H1113.59V485.146H1112.59ZM1113.08 643.189C1178.87 644.999 1241.29 653.947 1298.12 668.816L1298.37 667.849C1241.47 652.96 1178.97 644.001 1113.1 642.189L1113.08 643.189ZM1298.73 668.466C1314.07 613.145 1323.62 551.033 1325.57 485.16L1324.57 485.131C1322.62 550.927 1313.08 612.959 1297.76 668.199L1298.73 668.466ZM1325.07 484.646H1113.09V485.646H1325.07V484.646ZM1374.64 485.132C1372.71 555.747 1362.68 622.547 1345.95 682.675L1346.91 682.943C1363.66 622.731 1373.71 555.85 1375.64 485.159L1374.64 485.132ZM1346.27 683.283C1379.06 694.491 1409.52 707.79 1437.01 722.965L1437.49 722.089C1409.94 706.883 1379.43 693.562 1346.59 682.336L1346.27 683.283ZM1437.01 722.965C1441.53 725.455 1445.9 728.086 1450.27 730.703L1450.78 729.845C1446.42 727.23 1442.03 724.59 1437.49 722.089L1437.01 722.965ZM1450.92 730.572C1503.93 659.303 1534.74 573.93 1539.49 485.172L1538.49 485.119C1533.75 573.681 1503.01 658.864 1450.12 729.975L1450.92 730.572ZM1538.99 484.646H1375.14V485.646H1538.99V484.646ZM1062.88 692.531C1002.29 694.343 944.924 702.637 893.07 715.967L893.319 716.935C945.099 703.625 1002.39 695.34 1062.91 693.53L1062.88 692.531ZM892.725 716.623C901.917 741.724 912.357 765.006 923.884 785.997L924.761 785.515C913.261 764.574 902.841 741.338 893.664 716.279L892.725 716.623ZM923.884 785.997C962.566 856.381 1011.41 899.723 1062.8 910.489L1063 909.511C1012.02 898.829 963.373 855.773 924.761 785.515L923.884 785.997ZM1063.4 910V693.031H1062.4V910H1063.4ZM1112.59 693.031V909.99H1113.59V693.031H1112.59ZM1113.19 910.479C1164.59 899.723 1213.43 856.371 1252.11 785.987L1251.23 785.505C1212.63 855.763 1163.98 898.829 1112.99 909.501L1113.19 910.479ZM1252.11 785.987C1263.63 765.006 1274.07 741.724 1283.27 716.623L1282.33 716.279C1273.15 741.338 1262.73 764.574 1251.23 785.505L1252.11 785.987ZM1282.92 715.967C1231.07 702.637 1173.7 694.333 1113.11 692.531L1113.08 693.53C1173.6 695.33 1230.89 703.625 1282.67 716.935L1282.92 715.967ZM1330.58 730.647C1320.32 759.016 1308.51 785.561 1295.21 809.781L1296.08 810.262C1309.42 785.991 1321.24 759.398 1331.52 730.987L1330.58 730.647ZM1295.21 809.78C1279.65 838.081 1261.92 863.541 1242.33 885.198L1243.07 885.869C1262.72 864.146 1280.5 838.621 1296.08 810.262L1295.21 809.78ZM1242.87 886.003C1309.65 861.613 1369.75 821.784 1418.29 769.749L1417.55 769.067C1369.13 820.987 1309.16 860.728 1242.53 885.064L1242.87 886.003ZM1418.17 768.974C1416.55 768.049 1414.95 767.079 1413.28 766.154L1412.8 767.028C1414.47 767.954 1416.02 768.896 1417.67 769.842L1418.17 768.974ZM1413.28 766.153C1388.8 752.657 1361.22 740.613 1331.21 730.344L1330.89 731.29C1360.85 741.543 1388.38 753.564 1412.8 767.029L1413.28 766.153ZM844.759 730.364C814.761 740.634 787.189 752.647 762.707 766.163L763.191 767.039C787.615 753.554 815.132 741.563 845.083 731.31L844.759 730.364ZM762.709 766.162C761.03 767.08 759.44 768.049 757.822 768.974L758.319 769.842C759.973 768.896 761.515 767.954 763.189 767.04L762.709 766.162ZM757.705 769.749C806.241 821.784 866.338 861.613 933.115 886.003L933.458 885.064C866.829 860.728 806.865 820.987 758.436 769.067L757.705 769.749ZM933.658 885.198C914.073 863.541 896.337 838.081 880.784 809.78L879.907 810.262C895.492 838.621 913.272 864.146 932.916 885.869L933.658 885.198ZM880.784 809.781C867.487 785.561 855.662 759.025 845.391 730.667L844.451 731.007C854.737 759.409 866.583 785.992 879.907 810.262L880.784 809.781Z" fill="#BD44D9" fill-opacity="0.32" mask="url(#path-8-inside-1_2141_3100)"/>
</g>
<defs>
<clipPath id="clip0_2141_3100">
<rect width="80" height="80" fill="white" transform="translate(0 38)"/>
</clipPath>
<clipPath id="clip1_2141_3100">
<rect width="100" height="100" fill="white" transform="translate(514 333)"/>
</clipPath>
<clipPath id="clip2_2141_3100">
<rect width="920" height="436" fill="white" transform="translate(628)"/>
</clipPath>
</defs>
</svg>
